<?xml version="1.0" encoding="UTF-8" standalone="no"?>
<svg
   id="splitsvg"
   version="1.1"
   width="256"
   height="256"
   sodipodi:docname="gazu.svg"
   inkscape:version="1.4.2 (f4327f4, 2025-05-13)"
   inkscape:export-filename="gazu.png"
   inkscape:export-xdpi="96"
   inkscape:export-ydpi="96"
   xmlns:inkscape="http://www.inkscape.org/namespaces/inkscape"
   xmlns:sodipodi="http://sodipodi.sourceforge.net/DTD/sodipodi-0.dtd"
   xmlns="http://www.w3.org/2000/svg"
   xmlns:svg="http://www.w3.org/2000/svg">
  <defs
     id="defs1">
    <clipPath
       clipPathUnits="userSpaceOnUse"
       id="clipPath2">
      <g
         inkscape:label="Clip"
         id="use2" />
    </clipPath>
  </defs>
  <sodipodi:namedview
     id="namedview1"
     pagecolor="#ffffff"
     bordercolor="#000000"
     borderopacity="0"
     inkscape:showpageshadow="2"
     inkscape:pageopacity="0.0"
     inkscape:pagecheckerboard="0"
     inkscape:deskcolor="#d1d1d1"
     inkscape:zoom="3.568116"
     inkscape:cx="137.74776"
     inkscape:cy="122.61373"
     inkscape:window-width="2560"
     inkscape:window-height="1577"
     inkscape:window-x="-8"
     inkscape:window-y="-8"
     inkscape:window-maximized="1"
     inkscape:current-layer="svgg"
     inkscape:antialias-rendering="true"
     showguides="true" />
  <g
     id="svgg"
     inkscape:label="svg">
    <path
       id="path1"
       d="m 48.384043,2.9163513 c -0.25635,0.2939672 -0.78159,2.5607159 -1.319368,5.6996114 l -0.893742,5.2119893 0.323921,6.872692 c 0.183903,3.886352 0.481353,7.372854 0.685458,8.023482 3.604227,11.491175 9.983724,24.372074 14.370936,29.014936 11.313542,11.974618 20.670319,23.659452 25.207998,31.480917 1.869687,3.221099 3.896805,6.672072 4.505633,7.668215 0.62137,1.01634 1.318672,2.667287 1.588954,3.761656 0.264705,1.07276 1.09158,4.20749 1.836947,6.96604 1.196765,4.42691 3.97969,21.09316 3.58124,21.44843 -0.0905,0.0815 -15.880482,-13.03556 -18.03856,-14.98465 -1.405044,-1.2699 -0.458362,-0.8617 -11.169344,-4.8205 -19.408771,-7.17293 -17.243727,-7.28369 -16.28729,0.83174 0.458366,3.88845 0.792736,5.73166 1.13407,6.25621 0.266103,0.40821 2.429058,3.43843 4.806567,6.73337 2.377509,3.29493 5.399376,7.4864 6.716654,9.31359 l 2.39353,3.3235 4.4499,2.02084 c 2.447173,1.11178 8.459557,3.88774 13.360163,6.16843 l 8.910955,4.14688 1.038641,4.30153 c 2.694464,11.16586 4.684664,19.90545 4.684664,20.56861 0,0.40125 -0.37687,3.23782 -0.83663,6.30288 -1.499785,9.98512 -4.460349,29.61123 -5.863313,38.87049 -0.754421,4.98071 -1.374394,9.4529 -1.376484,9.93844 -0.0039,0.8408 0.429109,1.19607 8.982007,7.37285 17.08073,12.33546 26.82065,19.26458 27.24975,19.38439 0.23615,0.0662 1.80351,-0.86936 3.48302,-2.07866 1.67881,-1.20861 9.57273,-6.87827 17.54188,-12.59948 17.13714,-12.30201 15.80523,-11.22019 15.60461,-12.66982 -0.38174,-2.75994 -3.28866,-22.15548 -4.32381,-28.85263 -0.62765,-4.0612 -1.75127,-11.47864 -2.49594,-16.48373 l -1.35419,-9.09974 0.65689,-3.02117 c 0.36084,-1.6614 1.66698,-7.20428 2.90205,-12.31665 1.23508,-5.11307 2.24585,-9.3519 2.24585,-9.42087 0,-0.0683 1.22254,-0.6959 2.71676,-1.3939 7.80405,-3.64742 15.19013,-7.05868 19.29592,-8.91166 2.52867,-1.14103 4.80517,-2.28764 5.05943,-2.54817 0.4305,-0.44095 12.66635,-17.43181 13.70289,-19.02703 0.52315,-0.80597 1.67047,-9.19518 1.52487,-11.1568 -0.14699,-1.99299 -0.31487,-1.97905 -7.22587,0.57956 -3.42868,1.26992 -8.61699,3.17304 -11.52879,4.22909 -2.91181,1.05674 -5.83823,2.12185 -6.50279,2.36776 -0.81225,0.30023 -4.42344,3.13123 -11.00634,8.62953 -10.97848,9.16869 -10.22963,8.64902 -9.89526,6.86851 0.13654,-0.72795 0.68685,-4.45827 1.22323,-8.28959 1.12293,-8.02697 3.84456,-19.20467 5.33599,-21.920024 7.76225,-14.129215 14.29988,-22.85557 28.77461,-38.405855 2.80383,-3.012114 3.23015,-3.635574 7.09281,-10.386361 4.33637,-7.579048 3.99852,-6.800245 8.53618,-19.646314 0.41031,-1.160542 0.58307,-2.906928 0.81574,-8.249181 l 0.29535,-6.777257 -0.84428,-5.3213562 c -0.92927,-5.8570445 -0.98291,-6.072991 -1.55552,-6.293118 -1.13058,-0.4332878 -1.18631,-0.3023261 -3.14308,7.3540454 -2.9097,11.3838978 -4.17962,15.5050058 -5.29418,17.1831238 -0.5949,0.895832 -2.14833,3.445402 -3.45167,5.666871 -1.30335,2.221469 -2.9968,4.728546 -3.76445,5.571436 -0.76696,0.842891 -2.88533,3.476053 -4.70764,5.851472 -1.82232,2.375419 -4.81911,5.823607 -6.66024,7.662641 -1.84042,1.839034 -4.72227,4.768252 -6.40317,6.509063 -2.3817,2.466674 -3.46701,3.372258 -4.91802,4.103693 -2.20127,1.10969 -2.29531,1.228809 -6.29243,7.917597 -2.8324,4.740389 -3.21065,5.245427 -4.70138,6.269435 -1.76031,1.21 -1.54576,0.874237 -6.52299,10.219873 -1.57085,2.94942 -2.53843,4.465929 -2.97868,4.666551 -1.5186,0.691724 -3.38132,2.820549 -3.8355,4.383726 -2.606,8.962499 -4.11136,13.313479 -4.95286,14.313809 -0.6346,0.75372 -1.39668,2.48131 -2.59972,5.89327 l -1.7018,4.82607 h -8.0186 -8.01861 l -1.7039,-4.83443 c -1.22811,-3.48442 -1.95955,-5.13606 -2.62062,-5.91486 -0.76696,-0.9049 -1.27479,-2.26954 -3.11939,-8.37527 -2.38726,-7.905056 -2.84075,-8.753517 -5.41749,-10.141156 -0.72307,-0.389405 -1.40783,-1.458686 -3.6307,-5.669657 -1.50675,-2.853983 -3.13541,-5.932277 -3.61886,-6.840648 -0.73004,-1.371614 -1.1473,-1.800721 -2.461792,-2.527976 C 96.416262,75.829164 96.308987,75.687058 92.994542,70.118407 88.993949,63.396182 89.271899,63.750056 87.090829,62.611805 84.461153,61.240193 73.261853,49.815197 68.489424,43.634928 66.522212,41.088145 64.550127,38.699491 64.107087,38.326111 63.663351,37.952732 62.947939,37.026946 62.516044,36.269041 62.084846,35.511136 60.380256,32.633466 58.728608,29.874915 L 55.725549,24.859369 53.867011,18.032652 C 52.844397,14.277958 51.58842,9.4073052 51.075023,7.2088235 49.950705,2.3966849 49.485373,1.6548024 48.384043,2.9163513 m 1.175171,7.6891117 c 0,0.206195 0.815026,3.345788 1.811169,6.977183 2.138574,7.796389 2.070306,7.137402 0.7384,7.137402 -0.590024,0 -1.47471,0.140017 -1.965119,0.310685 -0.490409,0.171364 -0.945988,0.25635 -1.012861,0.189476 -0.371291,-0.371289 -0.684762,-11.06764 -0.380346,-12.956829 0.280731,-1.738026 0.808757,-2.8212444 0.808757,-1.657917 m 158.774806,1.99368 c 0.27724,1.763104 -0.0133,12.278337 -0.349,12.613404 -0.0578,0.05782 -0.58724,-0.02856 -1.17587,-0.192263 -0.58933,-0.163006 -1.47889,-0.298147 -1.97697,-0.298843 -1.15566,-0.0021 -1.19606,0.350391 0.76069,-6.650475 0.91534,-3.273342 1.745,-6.386463 1.84462,-6.917276 0.24869,-1.3235463 0.53359,-0.864484 0.89653,1.445453 M 54.360903,27.541293 c 0.270979,0.144893 1.620997,2.169921 3.000272,4.500059 2.296006,3.87869 2.929219,5.232191 2.252119,4.814229 -0.508519,-0.314865 -3.078291,0.461151 -4.63938,1.401567 -0.878417,0.528722 -1.624479,0.928573 -1.657917,0.887473 -0.144893,-0.175544 -3.72056,-10.483189 -3.804152,-10.964542 -0.174849,-1.00938 3.300508,-1.467745 4.849058,-0.638786 m 152.606377,-0.0014 c 0.52175,0.181814 0.83871,0.456275 0.76138,0.658291 -0.0731,0.190869 -0.98011,2.715361 -2.01457,5.609749 -2.18177,6.100856 -1.93238,5.605571 -2.55236,5.060826 -0.87702,-0.771836 -2.84075,-1.623086 -4.53768,-1.968602 l -1.66209,-0.337852 1.81604,-3.023261 c 4.01105,-6.676947 4.73203,-7.204276 8.18928,-5.999151 M 61.937167,39.529146 c 0.551012,0.250777 7.684235,9.079533 7.684235,9.510731 0,0.0613 -0.675012,0.263316 -1.500481,0.447916 -1.804904,0.40403 -4.422044,1.903818 -5.703098,3.269857 -1.154969,1.230203 -0.776713,1.650255 -4.787063,-5.309513 -3.906553,-6.779347 -3.563128,-5.769272 -2.291825,-6.738944 2.114889,-1.613335 4.651919,-2.066823 6.598232,-1.180047 m 137.670493,0.03552 c 1.31449,0.485532 2.92574,1.629356 2.92574,2.076575 0,0.369201 -6.16494,11.339316 -6.66371,11.858286 -0.11564,0.120513 -0.76209,-0.284911 -1.43571,-0.901405 -1.47541,-1.348625 -3.82017,-2.637342 -5.62368,-3.090831 -1.67742,-0.422142 -1.85366,0.01254 2.00831,-4.965392 4.46872,-5.759519 5.33668,-6.251321 8.78905,-4.977233 M 72.268493,51.829077 c 0.501554,0.305113 6.883144,6.793976 8.442845,8.584247 l 0.630424,0.723771 -1.808387,0.89026 c -1.959547,0.964796 -3.285876,2.305758 -4.670731,4.722973 -0.693814,1.211394 -0.916031,1.418285 -1.193971,1.114566 -1.95816,-2.142753 -9.63682,-10.770885 -10.152306,-11.408975 l -0.672223,-0.830351 1.090185,-1.120139 c 2.437417,-2.505684 6.481902,-3.80485 8.334164,-2.676352 m 118.128667,0.727255 c 0.97177,0.47787 2.22356,1.375096 2.78224,1.99368 l 1.01635,1.125015 -0.91674,1.051175 c -0.50364,0.578179 -2.9738,3.362504 -5.48784,6.187233 -2.51474,2.824031 -4.60176,5.174373 -4.63729,5.221045 -0.0362,0.04737 -0.51479,-0.653415 -1.06372,-1.557606 -1.23159,-2.027117 -3.40429,-4.097423 -5.07823,-4.837217 -1.58269,-0.700783 -1.87805,-0.218036 3.47187,-5.682195 l 4.56067,-4.658885 1.79305,0.144197 c 1.22394,0.09822 2.35452,0.420052 3.55964,1.013558 M 85.42525,64.271115 c 1.184927,0.560766 1.963727,1.155666 2.461101,1.880831 0.674309,0.981515 5.419574,8.985491 5.419574,9.140834 0,0.03761 -0.511302,0.150466 -1.135465,0.25008 -1.86202,0.298147 -4.337752,1.735937 -6.138471,3.564521 -1.42664,1.448937 -1.733843,1.645379 -2.052884,1.313795 -1.491436,-1.55064 -7.943372,-9.963523 -7.946165,-10.359891 -0.0049,-0.867271 1.581296,-3.64672 2.689588,-4.712524 2.220775,-2.136483 3.895408,-2.405373 6.702722,-1.077646 m 91.10602,-0.238238 c 2.22355,1.076253 4.95703,5.157653 4.33078,6.466572 -0.23266,0.486926 -6.92214,9.023108 -7.88485,10.061744 -0.13375,0.144894 -0.89305,-0.417962 -1.77913,-1.317973 -1.83764,-1.867595 -3.92118,-3.119393 -5.94412,-3.573578 -1.74778,-0.392187 -1.77425,-0.179027 0.49877,-3.944867 3.76375,-6.233907 3.87938,-6.38089 5.825,-7.367977 2.08354,-1.056748 3.27752,-1.134767 4.95355,-0.323921 M 96.514482,78.345994 c 1.034461,0.606741 1.43083,1.185619 3.478838,5.085205 1.27201,2.420702 2.66869,5.042017 3.10478,5.825701 l 0.79343,1.424549 -1.52836,0.307203 c -2.61435,0.52524 -8.221315,3.982484 -8.221315,5.069884 0,1.127104 -1.98254,-1.914266 -6.844828,-10.499909 l -1.519293,-2.682615 0.763476,-1.005207 c 2.870704,-3.776982 7.032214,-5.248209 9.973272,-3.524811 m 69.436768,-0.08499 c 2.27163,0.843587 5.55054,4.10718 5.07337,5.048987 -0.17345,0.341331 -1.96373,3.459335 -3.97761,6.927723 l -3.66274,6.306353 -1.88153,-1.77425 c -2.12603,-2.004828 -4.0194,-3.084561 -6.52091,-3.717075 l -1.71434,-0.433984 3.10755,-5.831971 c 3.95741,-7.425099 5.08591,-8.194149 9.57621,-6.525783 m -60.30777,15.021571 c 1.99299,0.553799 2.88812,1.673236 3.85222,4.817707 0.47717,1.55551 1.28593,4.144788 1.79793,5.753938 1.37092,4.30919 1.49213,3.92537 -1.26921,4.02916 -2.72651,0.1024 -5.81037,0.98779 -9.42993,2.70839 -1.27896,0.60814 -2.35452,1.06442 -2.39074,1.01496 -0.13932,-0.19226 -1.325639,-4.46593 -2.382389,-8.58634 l -1.107598,-4.316154 2.012485,-1.964417 c 3.097102,-3.021171 6.180972,-4.217242 8.917232,-3.457244 m 49.76189,0.228478 c 2.56559,0.799008 6.72501,4.216548 6.72501,5.526162 0,0.484139 -3.06158,12.375165 -3.24199,12.591805 -0.0516,0.0613 -1.24692,-0.42424 -2.65685,-1.07904 -4.27645,-1.98741 -6.21789,-2.56141 -9.00848,-2.6659 -1.88222,-0.0696 -2.49106,-0.18461 -2.4402,-0.45907 0.50921,-2.74391 3.78116,-12.145275 4.46453,-12.829341 1.57154,-1.570845 3.50183,-1.910788 6.15798,-1.084616 M 64.745176,110.10276 c 5.210592,1.94701 10.226843,3.82296 11.147055,4.16848 1.600792,0.60117 5.059433,3.36042 21.520174,17.16849 l 1.162635,0.97525 -1.311011,4.52514 c -0.720987,2.48966 -1.429433,4.48751 -1.574322,4.44015 -0.145592,-0.0467 -3.783259,-4.65401 -8.084783,-10.23729 l -7.820079,-10.1523 -3.340211,-1.75196 c -1.836947,-0.96341 -6.070901,-3.19602 -9.409022,-4.96191 -4.01871,-2.12604 -6.243663,-3.15492 -6.587089,-3.04555 -0.610922,0.19365 -0.885384,1.00311 -0.546137,1.60916 0.193655,0.34621 13.476499,7.485 17.242333,9.26622 0.536384,0.25425 1.414108,1.0463 1.950492,1.76031 3.526212,4.69581 13.405444,17.45828 14.527675,18.76581 1.317274,1.53601 1.74569,2.73905 0.975934,2.73905 -0.208279,0 -4.502839,-1.92333 -9.54347,-4.27367 -5.04062,-2.35103 -10.639924,-4.94589 -12.443427,-5.76648 l -3.278912,-1.49213 -5.776937,-8.03672 c -3.177212,-4.42065 -6.253414,-8.70475 -6.836471,-9.51978 -0.968976,-1.35629 -1.922627,-5.76161 -2.13927,-9.88133 -0.0035,-0.0543 0.151163,-0.0404 0.342729,0.0307 0.191567,0.0718 4.611516,1.72341 9.822114,3.67041 m 137.448274,0.62206 c -0.28421,2.24656 -0.60673,4.22908 -0.71541,4.40672 -1.50049,2.43672 -13.69174,18.92812 -14.11319,19.09043 -1.02609,0.39497 -12.67888,5.73583 -18.80761,8.62117 -5.77693,2.71953 -6.40179,2.90414 -6.42268,1.90381 -0.002,-0.11354 0.96759,-1.36813 2.1553,-2.78711 2.10304,-2.51335 6.31122,-7.90506 12.11741,-15.5273 l 2.85956,-3.7526 9.11924,-4.74596 c 9.14989,-4.76129 9.73017,-5.15905 9.13736,-6.26735 -0.48206,-0.9007 -0.85613,-0.76138 -7.92945,2.95431 -11.88615,6.24296 -11.78793,6.18583 -12.78198,7.43066 -0.51339,0.64227 -3.23712,4.17754 -6.05349,7.8556 -2.81637,3.67808 -6.06324,7.87511 -7.21472,9.32683 l -2.09399,2.63943 -0.61022,-2.08214 c -1.26295,-4.31128 -2.11768,-7.54283 -2.01737,-7.62642 0.0571,-0.0474 3.80276,-3.13681 8.32372,-6.86434 4.52096,-3.72822 9.22512,-7.62224 10.45393,-8.6539 2.12185,-1.78192 2.47085,-1.96095 6.96603,-3.56592 2.60252,-0.92927 7.55328,-2.75089 11.00147,-4.04727 3.44819,-1.29708 6.46657,-2.36636 6.7069,-2.37541 0.39358,-0.016 0.38522,0.39148 -0.0808,4.06676 m -89.51009,-0.21664 c 1.82161,0.82757 2.45832,1.86969 4.041,6.61843 0.80178,2.40677 1.47192,4.53141 1.48934,4.72158 0.0272,0.30373 -5.1277,3.754 -8.38781,5.61394 -1.32703,0.7572 -8.47489,2.89299 -8.77303,2.62201 -0.16509,-0.15047 -1.71992,-9.85555 -2.31342,-14.44199 l -0.18739,-1.44754 2.26188,-1.13756 c 5.64527,-2.83865 9.43829,-3.65299 11.86943,-2.54887 m 36.62951,-0.12957 c 4.39557,0.93275 9.22651,3.58542 9.03705,4.96261 -1.06302,7.73718 -2.08982,14.53812 -2.21381,14.66211 -0.0857,0.0863 -1.84461,-0.25774 -3.90865,-0.76487 l -3.75261,-0.9216 -4.80516,-3.06924 c -2.64362,-1.68857 -4.84836,-3.10755 -4.90061,-3.15422 -0.24451,-0.21874 3.33185,-9.73921 3.8759,-10.31879 1.57363,-1.67534 3.47675,-2.07379 6.66789,-1.396 m -21.9667,14.86135 c 0.0516,1.03446 0.0487,6.22764 -0.006,11.53993 l -0.0989,9.65842 -3.33325,1.17935 c -4.08279,1.44475 -3.18556,2.30158 -7.8953,-7.54004 -5.04062,-10.53334 -5.0678,-10.59744 -4.5739,-10.87468 0.21804,-0.12191 2.33989,-1.48307 4.71531,-3.02396 l 4.31895,-2.80174 3.38967,-0.009 3.38968,-0.009 0.0934,1.88083 m 14.0721,1.27757 4.78358,3.14587 -4.45688,9.17776 c -2.45135,5.04758 -4.52304,9.33448 -4.60454,9.52605 -0.22083,0.52175 -0.50295,0.46463 -4.05842,-0.81154 l -3.27403,-1.17587 v -11.51068 -11.50999 l 3.41335,0.006 3.41336,0.006 4.78358,3.14586 m -31.41404,6.38507 c 0.58723,1.26434 2.69306,5.69335 4.67839,9.84302 l 3.61049,7.54422 -2.33989,3.18347 c -1.28662,1.75057 -2.44368,3.28867 -2.57046,3.41685 -0.37757,0.38173 -3.63698,-4.11832 -3.63836,-5.02322 -0.0125,-6.11687 -8.36761,-8.21295 -10.89629,-2.73347 -2.477124,5.36663 4.9229,10.91718 8.78139,6.58639 0.29188,-0.3274 0.62555,-0.59559 0.74049,-0.59559 0.27516,0 3.04764,3.52969 3.04764,3.87938 0,0.34134 -8.64833,11.72454 -8.90747,11.72454 -0.10588,0 -0.60395,-1.7241 -1.10621,-3.83133 -0.50225,-2.10722 -1.77494,-7.39653 -2.82821,-11.75448 l -1.914263,-7.92318 2.077963,-7.23422 c 2.45136,-8.53201 1.58269,-7.26349 5.74907,-8.39129 4.68746,-1.26852 4.27158,-1.36743 5.51572,1.30891 m 42.45451,-1.30333 c 2.1748,0.54752 3.97761,1.01912 4.00617,1.04838 0.0285,0.0285 0.95853,3.35833 2.06613,7.39932 l 2.01457,7.34639 -2.70282,11.31911 c -1.48655,6.22555 -2.79965,11.56014 -2.91808,11.8548 -0.20898,0.52037 -8.93673,-10.31879 -9.18193,-11.40409 -0.0892,-0.39289 2.61435,-4.03891 2.9954,-4.03891 0.11494,0 0.43259,0.24659 0.70497,0.54753 3.13959,3.46908 9.51073,0.53707 9.44176,-4.34612 -0.0976,-6.91657 -11.21323,-7.07053 -11.23901,-0.15534 -0.004,1.09715 -2.47364,5.05247 -3.58263,5.73723 -0.25565,0.15813 -5.06013,-6.2771 -5.06013,-6.77725 0,-0.16928 0.85822,-2.02991 1.90661,-4.13504 1.04908,-2.10514 3.13471,-6.42966 4.6359,-9.60966 1.50048,-3.18 2.78083,-5.7818 2.84422,-5.7818 0.0634,0 1.89477,0.44791 4.06887,0.99545 m -20.06149,18.15488 c 3.04277,1.05047 3.86615,1.44336 3.95184,1.8857 0.101,0.51688 0.58165,5.38057 2.64569,26.76491 l 0.7809,8.09523 1.53322,3.4684 c 3.23085,7.31015 3.03162,6.59892 2.73347,9.76916 -0.14559,1.54576 -0.30441,2.84842 -0.35317,2.8937 -0.0487,0.046 -1.01983,0.72307 -2.15808,1.50535 l -2.06962,1.42178 h -4.8393 -4.8386 l 0.0815,-2.01179 0.0822,-2.0118 2.81637,-2.09817 c 1.54854,-1.15427 3.92953,-2.91319 5.2907,-3.90934 2.88742,-2.1135 2.91877,-2.195 1.88013,-4.93056 -1.08739,-2.86374 -0.89513,-2.84214 -6.47353,-0.737 l -4.81633,1.81673 -4.45547,-1.69692 c -5.67802,-2.16226 -5.61672,-2.16296 -6.64908,0.0445 -1.67046,3.57079 -2.33502,2.70004 7.60064,9.96492 l 2.43811,1.78331 v 1.86898 1.86899 l -4.66724,0.10937 -4.66725,0.10936 -2.14833,-1.36743 c -2.76899,-1.76171 -2.64849,-1.56735 -2.98007,-4.80308 l -0.28421,-2.77736 2.31064,-5.29419 2.30994,-5.29418 0.33785,-3.62235 c 0.73074,-7.82077 3.11033,-31.44887 3.17373,-31.5032 0.0801,-0.0696 7.25094,-2.59137 7.45087,-2.61993 0.0767,-0.0111 1.86898,0.57679 3.98248,1.30683 m -15.11421,14.50329 c -0.47439,4.70835 -1.16403,11.56989 -1.53184,15.24796 -0.61858,6.18096 -0.73631,6.83368 -1.55481,8.62464 -0.48623,1.06512 -1.00102,2.24237 -1.14313,2.61575 -0.51479,1.3549 -0.53778,0.28352 -0.11633,-5.56377 0.23545,-3.27543 0.74118,-10.50896 1.12292,-16.07413 0.38174,-5.56587 0.78995,-10.27838 0.90698,-10.47274 0.11703,-0.19436 0.8394,-1.20095 1.60567,-2.2368 1.79097,-2.42209 1.77007,-2.65405 0.71054,7.85909 m 23.73189,-7.322 1.54159,1.95048 0.32252,5.29419 c 0.38174,6.26805 0.71403,11.26757 1.27757,19.22626 0.64784,9.14154 0.64367,9.16313 -1.05117,5.14651 l -1.00241,-2.37611 -1.54995,-15.47714 c -0.85264,-8.5125 -1.54994,-15.6499 -1.54994,-15.86097 0,-0.4507 -0.0125,-0.46463 2.01179,2.09678 m -29.18839,11.02097 c -0.74954,9.91963 -1.52347,20.63688 -1.52347,21.09733 0,0.89026 -0.51967,-0.14072 -3.72823,-7.39306 -3.76096,-8.50135 -3.58193,-7.6083 -1.9477,-9.6995 0.70984,-0.90837 2.6666,-3.44471 4.34959,-5.63762 1.683,-2.19221 3.10407,-3.94138 3.15911,-3.88634 0.055,0.055 -0.0843,2.53842 -0.3093,5.51919 m 37.98302,0.51826 4.16778,5.40914 -1.71991,3.92536 c -5.21479,11.90008 -5.44884,12.35148 -5.45511,10.54309 -9.8e-4,-0.42144 -0.37687,-5.9699 -0.83454,-12.32988 -0.91672,-12.73601 -0.95504,-13.61164 -0.58026,-13.22154 0.14001,0.14559 2.12951,2.69864 4.42204,5.67383 m -43.16854,19.00266 3.88636,8.74935 0.19157,2.92433 c 0.23336,3.56731 0.51757,4.77104 1.23019,5.21408 0.30024,0.18669 1.83068,1.94213 3.40152,3.90099 1.57015,1.95884 3.47187,4.28271 4.2256,5.16392 l 1.37022,1.60219 h 7.73717 7.73718 l 3.5903,-4.52792 c 1.97417,-2.49037 4.12389,-5.10681 4.7773,-5.81456 l 1.18841,-1.28732 0.27934,-3.17094 c 0.3483,-3.95532 0.21316,-3.55617 4.38234,-12.92409 1.91008,-4.29108 3.66273,-8.24083 3.8954,-8.77721 0.48902,-1.12849 0.68546,-0.85334 1.02192,1.42803 0.2055,1.3953 0.43886,0.349 -5.12491,22.9531 -1.54647,6.28337 -4.38234,18.00721 -6.30288,26.05298 -1.91984,8.04577 -3.57635,14.70391 -3.68084,14.79586 -0.1045,0.0919 -2.32179,1.68091 -4.92709,3.53109 -2.60529,1.84948 -5.22453,3.73031 -5.82151,4.17892 l -1.08392,0.81503 -6.02144,-4.3078 c -4.43528,-3.17372 -6.07648,-4.50146 -6.23251,-5.04271 -0.11704,-0.40403 -1.59871,-6.5028 -3.29355,-13.55243 -5.56934,-23.17252 -6.94722,-28.86795 -9.30732,-38.48108 l -2.33362,-9.50238 0.31138,-2.0097 c 0.37617,-2.43254 -0.16858,-3.33116 4.90339,8.08827 m 50.99419,6.09946 c 1.9059,12.12021 5.05245,33.20292 5.05245,33.85007 0,0.20898 -2.16295,1.91844 -4.80656,3.79788 -2.64361,1.88014 -6.85179,4.91175 -9.3512,6.73824 -2.50011,1.82581 -4.61222,3.25315 -4.69372,3.17164 -0.17345,-0.17345 0.57052,-3.37364 5.80619,-24.98787 6.19281,-25.55979 6.87479,-28.28002 7.04614,-28.10029 0.0509,0.0529 0.47718,2.5419 0.9467,5.53033 m -54.88332,2.92574 c 1.08322,4.44433 2.4806,10.21221 3.10476,12.8175 1.18771,4.95425 5.91695,24.50164 7.06146,29.1877 0.36503,1.49422 0.5566,2.71676 0.42564,2.71676 -0.13096,0 -3.65857,-2.48131 -7.83888,-5.51362 -4.18102,-3.03232 -8.385031,-6.05976 -9.342857,-6.7278 -0.957836,-0.66805 -1.74151,-1.22812 -1.74151,-1.24553 0,-0.0167 1.24692,-8.18021 2.771087,-18.14095 1.52347,-9.96004 2.85051,-18.67386 2.94873,-19.3635 0.41726,-2.93549 0.29884,-3.21901 2.61157,6.26944 m 20.61877,-4.42344 c 1.93168,0.70845 3.62164,1.38972 3.75678,1.51303 0.24451,0.22361 0.31695,4.67002 0.0801,4.90687 -0.21038,0.21108 -7.98796,-5.74001 -7.98447,-6.10922 0.0209,-1.85226 -0.0404,-1.84808 4.14758,-0.31068 m 14.49075,-0.411 c 0.16788,0.48276 0.30581,0.90002 0.30581,0.92788 0,0.0278 -0.5956,0.47369 -1.32355,0.99057 -0.72795,0.51689 -2.55026,1.85436 -4.05006,2.97241 -1.49908,1.11874 -2.78432,2.03339 -2.85607,2.03339 -0.071,0 -0.12956,-1.11247 -0.12956,-2.47155 v -2.47155 l 3.692,-1.40993 c 4.43527,-1.69483 3.99014,-1.63632 4.36143,-0.57122 m 0.80946,16.53042 c 0.0467,0.0467 -0.69383,1.10202 -1.64538,2.34476 l -1.73106,2.25978 -6.71387,-0.0125 -6.71387,-0.0132 -1.73176,-2.28555 -1.73245,-2.28625 3.68294,-0.17067 c 3.40222,-0.15744 16.39039,-0.0293 16.58545,0.1637"
       stroke="none"
       fill="#7a7b7b"
       fill-rule="evenodd"
       inkscape:label="path1"
       sodipodi:nodetypes="cccccccccccccccsccccccscccsccccsccccsccccccccccccsccccsccsscscssccscccccccsccscsccccccsccccccscscccscccccccccccccsccccsccsccccccscccccccccccccccccccccccccccccscccccccccccccccccccsscccccccscccccccscccccccsccccccccsccccccccccccsccccccccccccccccccccsccccccsccccccccsccccccccsccccccccccccccccccccccccccccsscccsssscccccccccsccsccscsccsccccccccccccccccsccccccccccccccccccccccccssccccsccccsccscscsccccscsccccsccccccscscccccscccccccccccsccscccccsscsscccccccccsscsscccccccccccc"
       style="stroke-width:0.696604" />
  </g>
</svg>
